<svg width="150" height="150" viewBox="0 0 150 150" fill="none" xmlns="http://www.w3.org/2000/svg">
<g clip-path="url(#clip0_1_3)">
<rect width="150" height="150" rx="20" fill="white"/>
<path d="M35.75 121C33.6667 121 32.625 119.854 32.625 117.562V34.8125C32.625 32.5208 33.6667 31.375 35.75 31.375H49.0625C50.6458 31.375 51.8333 32.625 52.625 35.125L70.5 91.1875C72.3333 96.9375 73.4167 100.417 73.75 101.625C74.0833 102.792 74.5625 104.958 75.1875 108.125H75.5625C76.1875 104.958 76.6667 102.792 77 101.625C77.3333 100.417 78.4167 96.9375 80.25 91.1875L98.125 35.125C98.9167 32.625 100.104 31.375 101.688 31.375H115C117.083 31.375 118.125 32.5208 118.125 34.8125V117.562C118.125 119.854 117.083 121 115 121H109.25C107.167 121 106.125 119.854 106.125 117.562V52C106.125 50.3333 106.167 48.6667 106.25 47H106L82.9375 117.188C82.1042 119.729 80.7292 121 78.8125 121H71.9375C70.0208 121 68.6458 119.729 67.8125 117.188L44.75 47H44.5C44.5833 48.6667 44.625 50.3333 44.625 52V117.562C44.625 119.854 43.5833 121 41.5 121H35.75Z" fill="black"/>
</g>
<defs>
<clipPath id="clip0_1_3">
<rect width="150" height="150" fill="white"/>
</clipPath>
</defs>
</svg>
