<svg width="150" height="150" viewBox="0 0 150 150" fill="none" xmlns="http://www.w3.org/2000/svg">
<g clip-path="url(#clip0_1_9)">
<rect width="150" height="150" rx="20" fill="white"/>
<path d="M73.6667 117.4C69.0889 117.4 65.0222 116.956 61.4667 116.067C57.9556 115.178 55.0667 113.978 52.8 112.467C50.5778 110.956 48.7333 109.089 47.2667 106.867C45.8444 104.6 44.8444 102.222 44.2667 99.7333C43.6889 97.2444 43.4 94.4889 43.4 91.4667V37.8667H67.1333V88.4667C67.1333 94.1111 67.7111 98 68.8667 100.133C70.0667 102.222 71.8 103.267 74.0667 103.267C75.3111 103.267 76.4 103.067 77.3333 102.667C78.2667 102.222 79.1333 101.489 79.9333 100.467C80.7333 99.4 81.3333 97.8889 81.7333 95.9333C82.1778 93.9333 82.4 91.5111 82.4 88.6667V37.8667H103.467V91.8667C103.467 94.8444 103.2 97.5333 102.667 99.9333C102.178 102.333 101.244 104.667 99.8667 106.933C98.5333 109.156 96.7556 111.022 94.5333 112.533C92.3556 114 89.4889 115.178 85.9333 116.067C82.4222 116.956 78.3333 117.4 73.6667 117.4Z" fill="black"/>
</g>
<defs>
<clipPath id="clip0_1_9">
<rect width="150" height="150" fill="white"/>
</clipPath>
</defs>
</svg>
