<svg width="150" height="150" viewBox="0 0 150 150" fill="none" xmlns="http://www.w3.org/2000/svg">
<g clip-path="url(#clip0_1_12)">
<rect width="150" height="150" rx="20" fill="white"/>
<path d="M52.584 51.392C52.584 45.76 54.4613 41.3653 58.216 38.208C61.9707 34.9653 67.2187 33.344 73.96 33.344C80.7867 33.344 86.5467 34.0693 91.24 35.52V44.224C86.8027 42.6027 81.384 41.792 74.984 41.792C66.1947 41.792 61.8 45.12 61.8 51.776V57.92C61.8 60.9067 62.3547 63.2533 63.464 64.96C64.6587 66.6667 66.6213 68.288 69.352 69.824L84.2 78.144C91.112 81.8987 94.568 87.5733 94.568 95.168V102.08C94.568 107.968 92.5627 112.533 88.552 115.776C84.5413 119.019 78.7387 120.64 71.144 120.64C63.6347 120.64 57.6613 119.787 53.224 118.08V109.376C58.2587 111.253 63.976 112.192 70.376 112.192C80.4453 112.192 85.48 108.651 85.48 101.568V96.192C85.48 93.376 84.968 91.1573 83.944 89.536C82.92 87.9147 81.0853 86.3787 78.44 84.928L63.72 76.864C56.296 72.8533 52.584 66.88 52.584 58.944V51.392Z" fill="black"/>
</g>
<defs>
<clipPath id="clip0_1_12">
<rect width="150" height="150" fill="white"/>
</clipPath>
</defs>
</svg>
