<svg width="150" height="150" viewBox="0 0 150 150" fill="none" xmlns="http://www.w3.org/2000/svg">
<g clip-path="url(#clip0_1_15)">
<rect width="150" height="150" rx="20" fill="white"/>
<path d="M110.464 58.24L110.208 57.6C109.184 55.3813 107.733 53.4613 105.856 51.84C104.064 50.2187 101.205 48.896 97.28 47.872C93.3547 46.7627 88.0213 46.208 81.28 46.208H80.128V120.064C81.4933 120.064 83.7973 119.851 87.04 119.424C90.2827 118.912 92.8 118.485 94.592 118.144L95.104 118.912L92.16 128H68.48V126.72C68.8213 120.149 68.992 113.323 68.992 106.24V46.208H67.968C61.2267 46.208 55.8933 46.7627 51.968 47.872C48.0427 48.896 45.1413 50.2187 43.264 51.84C41.472 53.4613 40.0213 55.3813 38.912 57.6L38.656 58.24L32.384 55.936L39.68 30.72H49.792L50.048 31.104L45.824 38.4H103.296L99.072 31.104L99.328 30.72H109.568L116.736 55.936L110.464 58.24Z" fill="black"/>
</g>
<defs>
<clipPath id="clip0_1_15">
<rect width="150" height="150" fill="white"/>
</clipPath>
</defs>
</svg>
