<svg width="150" height="150" viewBox="0 0 150 150" fill="none" xmlns="http://www.w3.org/2000/svg">
<g clip-path="url(#clip0_1_24)">
<rect width="150" height="150" rx="20" fill="white"/>
<path d="M127.438 120.438C125.104 120.312 122.833 120.146 120.625 119.938C118.458 119.688 116.479 119.354 114.688 118.938C112.896 118.521 111.375 117.979 110.125 117.312C108.917 116.604 108.125 115.729 107.75 114.688L73.1875 29.3125C72.4792 29.3542 71.7917 29.6458 71.125 30.1875C70.8333 35.3542 69.25 39.5 66.375 42.625L67.8125 46.3125L41.4375 112.625C39.7708 116.792 34.6458 119.396 26.0625 120.438C25.8125 121.021 25.6875 121.542 25.6875 122C25.6875 122.5 25.8125 123 26.0625 123.5C30.8125 123.333 34.625 123.208 37.5 123.125C40.4167 123.042 42.4167 123 43.5 123C44.4583 123 46.625 123.042 50 123.125C53.4167 123.208 58.0417 123.333 63.875 123.5C64.125 123 64.25 122.5 64.25 122C64.25 121.542 64.125 121.021 63.875 120.438C60.4167 120.104 57.6042 119.75 55.4375 119.375C53.2708 118.958 51.5833 118.521 50.375 118.062C49.1667 117.604 48.3542 117.104 47.9375 116.562C47.5208 115.979 47.3125 115.333 47.3125 114.625C47.3125 114.167 47.3958 113.708 47.5625 113.25L56.6875 90.375C61.3125 90.2917 65.0417 90.2292 67.875 90.1875C70.75 90.1458 72.7292 90.125 73.8125 90.125C76.1875 90.125 78.2917 90.1458 80.125 90.1875C82 90.1875 83.6042 90.2083 84.9375 90.25L94 113.25C94.2083 113.875 94.3125 114.354 94.3125 114.688C94.3125 115.812 93.7292 116.812 92.5625 117.688C91.4375 118.562 90.0417 119.167 88.375 119.5L81.625 120.438C81.375 121.021 81.25 121.542 81.25 122C81.25 122.5 81.375 123 81.625 123.5C85.1667 123.375 88.75 123.271 92.375 123.188C96.0417 123.104 99.7917 123.062 103.625 123.062C107.458 123.062 111.333 123.104 115.25 123.188C119.208 123.271 123.271 123.375 127.438 123.5C127.729 122.917 127.875 122.417 127.875 122C127.875 121.75 127.833 121.5 127.75 121.25C127.667 121 127.562 120.729 127.438 120.438ZM73.8125 85.25C67.7708 85.25 62.7917 85.1667 58.875 85L70.75 54.375H71L82.9375 85.125C80.6875 85.2083 77.6458 85.25 73.8125 85.25ZM70.875 60.9375L62.5625 82.5625C67.6042 82.8125 73.1458 82.8542 79.1875 82.6875L70.875 60.9375ZM129.375 118.125C130.417 120.625 130.375 123.271 129.25 126.062H79.6875C78.6875 123.188 78.6875 120.542 79.6875 118.125C84.2292 117.875 87.4375 117.417 89.3125 116.75C91.1875 116.042 91.8333 114.917 91.25 113.375L83.0625 92.6875C75.3542 92.3958 67.1042 92.4792 58.3125 92.9375L50.25 113.625C50 114.333 50.1875 114.979 50.8125 115.562C51.4792 116.104 52.5417 116.542 54 116.875C55.4583 117.208 57.1667 117.479 59.125 117.688C61.0833 117.896 63.2917 118.042 65.75 118.125C66.7917 120.625 66.75 123.271 65.625 126.062C51.9583 125.562 38.1875 125.562 24.3125 126.062C23.1875 123.271 23.1458 120.625 24.1875 118.125C32.7708 117.125 37.625 115.25 38.75 112.5L65.125 46.1875C64.9583 45.8542 64.625 45.1042 64.125 43.9375C63.6667 42.7292 63.3958 41.9375 63.3125 41.5625C66.5625 38.2708 68.3542 34.0208 68.6875 28.8125C72.3542 27.0208 76.6667 26 81.625 25.75L116.688 112.75C117.479 114.708 118.729 116.021 120.438 116.688C122.146 117.312 125.125 117.792 129.375 118.125Z" fill="black"/>
</g>
<defs>
<clipPath id="clip0_1_24">
<rect width="150" height="150" fill="white"/>
</clipPath>
</defs>
</svg>
